<svg width="14" height="18" viewBox="0 0 14 18" fill="none" xmlns="http://www.w3.org/2000/svg">
    <path d="M13.6478 4.46087C13.6184 4.38261 13.5671 4.25869 13.4937 4.08913C13.4203 3.91956 13.369 3.80869 13.3396 3.75652C12.7233 2.47826 11.8208 1.53261 10.6321 0.919565C9.4434 0.306522 8.20335 0 6.91195 0C5.23899 0 3.72746 0.48913 2.37736 1.46739C1.02725 2.44565 0.234801 3.82174 0 5.59565V6.33913L0.0440252 6.53478V6.80869C0.102725 7.22608 0.256813 7.70217 0.506289 8.23695C0.755765 8.77174 0.983229 9.20217 1.18868 9.52826C1.39413 9.85434 1.72432 10.35 2.17925 11.0152C2.63417 11.6804 2.93501 12.1174 3.08176 12.3261C3.93291 13.6043 5.23899 15.4956 7 18C7.2348 17.6609 8.04193 16.4348 9.42138 14.3217C9.48008 14.2435 9.59015 14.087 9.75157 13.8522C9.913 13.6174 10.0231 13.4348 10.0818 13.3043C10.1405 13.2261 10.2358 13.1152 10.3679 12.9717C10.5 12.8283 10.5954 12.7174 10.6541 12.6391C10.8595 12.3 11.3071 11.6543 11.9969 10.7022C12.6866 9.75 13.1929 8.94782 13.5157 8.29565C13.8386 7.64348 14 7.00434 14 6.37826V5.51739C14 5.23043 13.8826 4.87826 13.6478 4.46087ZM6.95597 8.33478C5.81132 8.33478 5.01887 7.83913 4.57862 6.84782C4.54927 6.71739 4.53459 6.52174 4.53459 6.26087V5.75217C4.53459 5.1 4.78407 4.59782 5.28302 4.24565C5.78197 3.89348 6.36897 3.71739 7.04402 3.71739C7.77778 3.71739 8.38679 3.93913 8.87107 4.38261C9.35535 4.82609 9.59748 5.37391 9.59748 6.02608C9.59748 6.67826 9.34067 7.22608 8.82704 7.66956C8.31342 8.11304 7.68973 8.33478 6.95597 8.33478Z" fill="#FF574D"/>
</svg>
